/vscmnt/brussel_pixiu_data/_data_brussel/112/vsc11236/PredSimResults/SUBJ10mtu3D/worker5.mot
version=1
nRows=7
nColumns=50
inDegrees=yes
endheader
                time	         pelvis_tilt	         pelvis_list	     pelvis_rotation	           pelvis_tx	           pelvis_ty	           pelvis_tz	       hip_flexion_r	     hip_adduction_r	      hip_rotation_r	        knee_angle_r	       ankle_angle_r	         mtp_angle_r	       hip_flexion_l	     hip_adduction_l	      hip_rotation_l	        knee_angle_l	       ankle_angle_l	         mtp_angle_l	    lumbar_extension	      lumbar_bending	     lumbar_rotation	 ercspn_r/activation	 intobl_r/activation	 extobl_r/activation	    abd_r/activation	    add_r/activation	hamstrings_r/activation	bifemsh_r/activation	glut_max_r/activation	iliopsoas_r/activation	rect_fem_r/activation	  vasti_r/activation	gastroc_r/activation	 soleus_r/activation	tib_ant_r/activation	 ercspn_l/activation	 intobl_l/activation	 extobl_l/activation	    abd_l/activation	    add_l/activation	hamstrings_l/activation	bifemsh_l/activation	glut_max_l/activation	iliopsoas_l/activation	rect_fem_l/activation	  vasti_l/activation	gastroc_l/activation	 soleus_l/activation	tib_ant_l/activation	
          1.08842978	         -3.09734080	         -0.23940743	          7.06121042	          1.31700004	          0.82655484	         -0.01255473	         30.61874889	         -1.80461204	         -4.44236305	         -9.29374231	          5.51937810	          0.25740449	        -17.35046624	          0.46367988	          3.94759277	         -5.29472728	          7.46602011	         26.17450153	         -8.61759954	         -0.89307212	         -4.56135829	          0.12049624	          0.15718878	          0.01000004	          0.01697592	          0.10259131	          0.11429779	          0.19066179	          0.02634475	          0.05536416	          0.01000031	          0.01178367	          0.01000001	          0.01000000	          0.28966875	          0.08307268	          0.01000000	          0.01000001	          0.06202721	          0.01000006	          0.01982816	          0.18674154	          0.03012105	          0.39389891	          0.01000023	          0.01000002	          0.27072027	          0.22057459	          0.02301411	
          1.09931408	         -3.11077083	         -0.20280873	          7.05240405	          1.33245253	          0.82544280	         -0.01240123	         30.19376562	         -1.51539898	         -3.62341250	        -10.25820544	          5.22313112	          0.25494503	        -17.32046217	          0.48184564	          3.50085366	         -7.26866658	          6.86314372	         27.86678987	         -8.40867050	         -0.47904202	         -4.85940739	          0.10199405	          0.13305246	          0.01000005	          0.01436927	          0.13641231	          0.09674736	          0.17194664	          0.07908077	          0.04686299	          0.01000006	          0.01000000	          0.01648917	          0.01395715	          0.29881951	          0.12163322	          0.01000001	          0.01000002	          0.05250292	          0.01396619	          0.02562325	          0.15806735	          0.02549597	          0.36557998	          0.01000015	          0.01000018	          0.22915115	          0.21113512	          0.01948029	
          1.11019838	         -3.11538298	         -0.18647068	          7.00481373	          1.34816822	          0.82448649	         -0.01217392	         29.64266416	         -1.23538701	         -2.77337821	        -11.18225086	          4.84740689	          0.24952000	        -17.16833363	          0.47899567	          3.01650076	         -9.48765945	          6.14356653	         29.46692351	         -8.17753997	         -0.03740599	         -5.14023761	          0.10267562	          0.11302032	          0.01000004	          0.05575707	          0.12574800	          0.08189181	          0.14554426	          0.10713110	          0.03966717	          0.01000003	          0.01000001	          0.01395726	          0.01181403	          0.36519470	          0.13148278	          0.01000000	          0.01000003	          0.04444109	          0.01182171	          0.02168933	          0.13379609	          0.02158106	          0.33432243	          0.01000025	          0.01000005	          0.19396495	          0.19557208	          0.01648909	
          1.12108268	         -3.11281078	         -0.17582539	          6.91270932	          1.36394977	          0.82379992	         -0.01184061	         29.05412648	         -0.95319084	         -2.01799193	        -12.00947053	          4.32481760	          0.23977228	        -16.83684555	          0.47074706	          2.48925383	        -12.01905009	          5.29582095	         30.88038160	         -7.94755075	          0.40873222	         -5.39595256	          0.10719301	          0.09566604	          0.01000003	          0.09751731	          0.14938370	          0.06931733	          0.12319594	          0.11861827	          0.03357627	          0.01000004	          0.02054173	          0.01181413	          0.01000004	          0.40189731	          0.15273006	          0.01000000	          0.01000002	          0.03761715	          0.01000654	          0.01840227	          0.11325169	          0.01826729	          0.30614370	          0.01000014	          0.01000007	          0.16418160	          0.17982078	          0.01395719	
          1.13196697	         -3.10350797	         -0.17313954	          6.78027147	          1.37965430	          0.82348001	         -0.01140798	         28.49401260	         -0.66358480	         -1.37409153	        -12.88094655	          3.82808065	          0.22800978	        -16.28559580	          0.45099292	          1.91346634	        -14.90353583	          4.33197294	         31.94663704	         -7.73190804	          0.85990163	         -5.62479258	          0.10570712	          0.08097650	          0.01000003	          0.12339897	          0.16805666	          0.06098124	          0.10427921	          0.11426392	          0.02842063	          0.01000003	          0.04974940	          0.01000009	          0.01000002	          0.43826073	          0.17054830	          0.01000000	          0.01000002	          0.03184103	          0.03330360	          0.03060736	          0.09586189	          0.01546235	          0.26205137	          0.01000007	          0.01000002	          0.13897148	          0.15220962	          0.01181406	
          1.14285127	         -3.08877590	         -0.17766138	          6.61080133	          1.39521131	          0.82359661	         -0.01088996	         27.94201298	         -0.36967829	         -0.83274064	        -13.76982751	          3.44976548	          0.21383977	        -15.49490290	          0.41448787	          1.27581840	        -18.15246812	          3.27517030	         32.46067016	         -7.53439279	          1.31281984	         -5.82646468	          0.09905193	          0.06854255	          0.01000003	          0.14616100	          0.17229359	          0.05768922	          0.08826715	          0.10100388	          0.02405664	          0.01000003	          0.09092825	          0.01000005	          0.01000003	          0.44939738	          0.18567054	          0.01000000	          0.01000002	          0.02695183	          0.06086336	          0.02657030	          0.08114230	          0.01308811	          0.22181343	          0.01000005	          0.01000000	          0.11763238	          0.12883781	          0.01000002	
          1.15373557	         -3.07103444	         -0.18572214	          6.40371849	          1.41055465	          0.82422998	         -0.01030624	         27.34941445	         -0.07977108	         -0.38849765	        -14.59158905	          3.25568976	          0.19977398	        -14.45097909	          0.35719534	          0.56674868	        -21.75006544	          2.06966318	         32.33254064	         -7.35907629	          1.76209140	         -5.99864722	          0.09010566	          0.05801783	          0.01000003	          0.16055615	          0.17272591	          0.05672957	          0.07471374	          0.08720630	          0.02036274	          0.01000003	          0.12415958	          0.01000010	          0.01000006	          0.44180063	          0.19405240	          0.01000000	          0.01000003	          0.02281337	          0.09764581	          0.02259754	          0.06868296	          0.01107843	          0.18775396	          0.01000003	          0.01000000	          0.09956991	          0.10905474	          0.01000000	
